<svg xmlns="http://www.w3.org/2000/svg" xmlns:xlink="http://www.w3.org/1999/xlink" version="1.1" width="1080" height="1080" viewBox="0 0 1080 1080" xml:space="preserve">
<desc>Created with Fabric.js 3.5.0</desc>
<defs>
</defs>
<rect x="0" y="0" width="100%" height="100%" fill="#ffffff"/>
<g transform="matrix(3.3058 0 0 3.3058 540.0014 540.0022)" id="233800">
<path style="stroke: none; stroke-width: 1; stroke-dasharray: none; stroke-linecap: butt; stroke-dashoffset: 0; stroke-linejoin: miter; stroke-miterlimit: 4; is-custom-font: none; font-file-url: none; fill: rgb(0,0,0); fill-rule: nonzero; opacity: 1;" vector-effect="non-scaling-stroke" transform=" translate(-148.5005, -148.5)" d="M 211.519 110.91 l 4.342 -1.468 c 4.902 -1.657 7.688 -6.826 6.374 -11.833 l -8.443 -32.184 c -0.694 -2.642 -2.453 -4.877 -4.858 -6.173 c -2.406 -1.297 -5.242 -1.531 -7.827 -0.659 l -10.586 3.578 l -6.225 -20.459 c -0.778 -2.559 -2.564 -4.689 -4.945 -5.905 c -1.479 -0.756 -3.111 -1.117 -4.741 -1.074 V 9.852 c 0 -5.441 -4.411 -9.852 -9.852 -9.852 c -5.441 0 -9.852 4.411 -9.852 9.852 v 31.173 l -12.809 4.402 V 9.852 c 0 -5.441 -4.411 -9.852 -9.852 -9.852 c -5.441 0 -9.852 4.411 -9.852 9.852 v 42.347 L 83.556 65.548 c -5.017 1.724 -7.768 7.11 -6.224 12.185 l 6.265 20.591 l -19.533 6.604 c -4.903 1.658 -7.687 6.828 -6.375 11.834 l 7.33 27.936 c -8.445 17.407 -14.063 36.005 -14.063 54.693 C 50.955 253.213 94.714 297 148.5 297 s 97.545 -43.787 97.545 -97.609 C 246.045 167.884 230.095 136.629 211.519 110.91 z M 168.416 57.217 l 2.703 8.887 l -69.465 23.876 l -2.704 -8.888 L 168.416 57.217 z M 197.411 80.643 l 3.432 13.078 L 82.512 133.73 l -3.431 -13.079 L 197.411 80.643 z M 134.231 137.043 l 21.81 -7.375 c 13.85 14.264 33.396 39.602 33.396 69.033 c 0 22.678 -18.364 41.127 -40.937 41.127 c -22.572 0 -40.937 -18.449 -40.937 -41.127 C 107.563 173.815 121.542 151.857 134.231 137.043 z M 148.5 277.296 c -42.921 0 -77.841 -34.948 -77.841 -77.905 c 0 -14.97 4.502 -30.172 11.406 -44.709 l 20.358 -6.884 c -8.295 14.521 -14.564 31.809 -14.564 50.903 c 0 33.542 27.203 60.831 60.641 60.831 s 60.642 -27.289 60.642 -60.831 c 0 -31.824 -17.405 -58.627 -32.597 -75.965 l 15.334 -5.186 c 18.212 23.945 34.462 53.303 34.462 81.84 C 226.341 242.348 191.421 277.296 148.5 277.296 z" stroke-linecap="round"/>
</g>
</svg>